<?xml version="1.0" encoding="UTF-8"?><svg xmlns="http://www.w3.org/2000/svg" xmlns:xlink="http://www.w3.org/1999/xlink" contentScriptType="text/ecmascript" width="381.75pt" zoomAndPan="magnify" contentStyleType="text/css" viewBox="0 0 381.75 153.750002" height="153.750002pt" preserveAspectRatio="xMidYMid meet" version="1.2"><defs><g/><clipPath xml:id="clip1" id="clip1"><path d="M 10.015625 100 L 99.128906 100 L 99.128906 127.695312 L 10.015625 127.695312 Z M 10.015625 100 "/></clipPath><clipPath xml:id="clip2" id="clip2"><path d="M 10.015625 100 L 55 100 L 55 127.695312 L 10.015625 127.695312 Z M 10.015625 100 "/></clipPath><filter x="0%" y="0%" width="100%" xmlns:xlink="http://www.w3.org/1999/xlink" xlink:type="simple" filterUnits="objectBoundingBox" xlink:actuate="onLoad" id="alpha" height="100%" xlink:show="other" xml:id="alpha"><feColorMatrix values="0 0 0 0 1 0 0 0 0 1 0 0 0 0 1 0 0 0 1 0" type="matrix" in="SourceGraphic"/></filter><clipPath xml:id="clip4" id="clip4"><path d="M 0.015625 0.398438 L 44.578125 0.398438 L 44.578125 27.695312 L 0.015625 27.695312 Z M 0.015625 0.398438 "/></clipPath><clipPath xml:id="clip3" id="clip3"><rect x="0" width="45" y="0" height="28"/></clipPath><clipPath xml:id="clip5" id="clip5"><path d="M 54 100 L 99.128906 100 L 99.128906 127.695312 L 54 127.695312 Z M 54 100 "/></clipPath><clipPath xml:id="clip7" id="clip7"><path d="M 0.335938 0.398438 L 45.128906 0.398438 L 45.128906 27.695312 L 0.335938 27.695312 Z M 0.335938 0.398438 "/></clipPath><clipPath xml:id="clip6" id="clip6"><rect x="0" width="46" y="0" height="28"/></clipPath><clipPath xml:id="clip8" id="clip8"><path d="M 10.015625 75 L 99.128906 75 L 99.128906 101 L 10.015625 101 Z M 10.015625 75 "/></clipPath><clipPath xml:id="clip9" id="clip9"><path d="M 10.015625 75 L 55 75 L 55 101 L 10.015625 101 Z M 10.015625 75 "/></clipPath><clipPath xml:id="clip11" id="clip11"><path d="M 0.015625 0.238281 L 44.578125 0.238281 L 44.578125 25.636719 L 0.015625 25.636719 Z M 0.015625 0.238281 "/></clipPath><clipPath xml:id="clip10" id="clip10"><rect x="0" width="45" y="0" height="26"/></clipPath><clipPath xml:id="clip12" id="clip12"><path d="M 54 75 L 99.128906 75 L 99.128906 101 L 54 101 Z M 54 75 "/></clipPath><clipPath xml:id="clip14" id="clip14"><path d="M 0.335938 0.238281 L 45.128906 0.238281 L 45.128906 25.636719 L 0.335938 25.636719 Z M 0.335938 0.238281 "/></clipPath><clipPath xml:id="clip13" id="clip13"><rect x="0" width="46" y="0" height="26"/></clipPath><clipPath xml:id="clip15" id="clip15"><path d="M 10.015625 48 L 55 48 L 55 76 L 10.015625 76 Z M 10.015625 48 "/></clipPath><clipPath xml:id="clip16" id="clip16"><path d="M 54 48 L 99.128906 48 L 99.128906 76 L 54 76 Z M 54 48 "/></clipPath><clipPath xml:id="clip17" id="clip17"><path d="M 10.015625 21.296875 L 99.128906 21.296875 L 99.128906 76 L 10.015625 76 Z M 10.015625 21.296875 "/></clipPath><clipPath xml:id="clip18" id="clip18"><path d="M 10.015625 48 L 55 48 L 55 76 L 10.015625 76 Z M 10.015625 48 "/></clipPath><clipPath xml:id="clip20" id="clip20"><path d="M 0.015625 0.160156 L 44.578125 0.160156 L 44.578125 27.71875 L 0.015625 27.71875 Z M 0.015625 0.160156 "/></clipPath><clipPath xml:id="clip19" id="clip19"><rect x="0" width="45" y="0" height="28"/></clipPath><clipPath xml:id="clip21" id="clip21"><path d="M 54 48 L 99.128906 48 L 99.128906 76 L 54 76 Z M 54 48 "/></clipPath><clipPath xml:id="clip23" id="clip23"><path d="M 0.335938 0.160156 L 45.128906 0.160156 L 45.128906 27.71875 L 0.335938 27.71875 Z M 0.335938 0.160156 "/></clipPath><clipPath xml:id="clip22" id="clip22"><rect x="0" width="46" y="0" height="28"/></clipPath><clipPath xml:id="clip24" id="clip24"><path d="M 10.015625 21.296875 L 99.128906 21.296875 L 99.128906 76 L 10.015625 76 Z M 10.015625 21.296875 "/></clipPath><clipPath xml:id="clip26" id="clip26"><path d="M 0.015625 0.324219 L 89.128906 0.324219 L 89.128906 54.71875 L 0.015625 54.71875 Z M 0.015625 0.324219 "/></clipPath><clipPath xml:id="clip25" id="clip25"><rect x="0" width="90" y="0" height="55"/></clipPath></defs><g xml:id="surface1" id="surface1"><g clip-rule="nonzero" clip-path="url(#clip1)"><path style=" stroke:none;fill-rule:nonzero;fill:rgb(93.328857%,25.099182%,20.779419%);fill-opacity:1;" d="M 54.550781 100.589844 L 9.96875 100.589844 L 54.546875 127.648438 L 54.550781 127.648438 L 99.128906 100.589844 Z M 54.550781 100.589844 "/></g><g clip-rule="nonzero" clip-path="url(#clip2)"><g mask="url(#mask0)" transform="matrix(1,0,0,1,10,100)"><g xml:id="surface5" id="surface5" clip-path="url(#clip3)"><g clip-rule="nonzero" clip-path="url(#clip4)"><path style=" stroke:none;fill-rule:nonzero;fill:rgb(100%,100%,100%);fill-opacity:1;" d="M -0.03125 0.589844 L 44.546875 27.648438 L 44.550781 27.648438 L 44.550781 0.589844 Z M -0.03125 0.589844 "/></g></g><mask xml:id="mask0" id="mask0"><g filter="url(#alpha)"><rect x="0" width="381.75" y="0" height="153.750002" style="fill:rgb(0%,0%,0%);fill-opacity:0.2;stroke:none;"/></g></mask></g></g><g clip-rule="nonzero" clip-path="url(#clip5)"><g mask="url(#mask1)" transform="matrix(1,0,0,1,54,100)"><g xml:id="surface8" id="surface8" clip-path="url(#clip6)"><g clip-rule="nonzero" clip-path="url(#clip7)"><path style=" stroke:none;fill-rule:nonzero;fill:rgb(100%,100%,100%);fill-opacity:1;" d="M 0.550781 27.648438 L 45.128906 0.589844 L 0.550781 0.589844 Z M 0.550781 27.648438 "/></g></g><mask xml:id="mask1" id="mask1"><g filter="url(#alpha)"><rect x="0" width="381.75" y="0" height="153.750002" style="fill:rgb(0%,0%,0%);fill-opacity:0.298;stroke:none;"/></g></mask></g></g><g clip-rule="nonzero" clip-path="url(#clip8)"><path style=" stroke:none;fill-rule:nonzero;fill:rgb(93.328857%,25.099182%,20.779419%);fill-opacity:1;" d="M 54.550781 75.464844 L 9.96875 75.464844 L 9.96875 100.589844 L 99.128906 100.589844 L 99.128906 75.464844 Z M 54.550781 75.464844 "/></g><g clip-rule="nonzero" clip-path="url(#clip9)"><g mask="url(#mask2)" transform="matrix(1,0,0,1,10,75)"><g xml:id="surface11" id="surface11" clip-path="url(#clip10)"><g clip-rule="nonzero" clip-path="url(#clip11)"><path style=" stroke:none;fill-rule:nonzero;fill:rgb(100%,100%,100%);fill-opacity:1;" d="M 44.550781 8.542969 L 44.550781 0.464844 L -0.03125 0.464844 L -0.03125 25.589844 L 44.550781 25.589844 Z M 44.550781 8.542969 "/></g></g><mask xml:id="mask2" id="mask2"><g filter="url(#alpha)"><rect x="0" width="381.75" y="0" height="153.750002" style="fill:rgb(0%,0%,0%);fill-opacity:0.2;stroke:none;"/></g></mask></g></g><g clip-rule="nonzero" clip-path="url(#clip12)"><g mask="url(#mask3)" transform="matrix(1,0,0,1,54,75)"><g xml:id="surface14" id="surface14" clip-path="url(#clip13)"><g clip-rule="nonzero" clip-path="url(#clip14)"><path style=" stroke:none;fill-rule:nonzero;fill:rgb(100%,100%,100%);fill-opacity:1;" d="M 0.550781 0.464844 L 0.550781 25.589844 L 45.128906 25.589844 L 45.128906 0.464844 Z M 0.550781 0.464844 "/></g></g><mask xml:id="mask3" id="mask3"><g filter="url(#alpha)"><rect x="0" width="381.75" y="0" height="153.750002" style="fill:rgb(0%,0%,0%);fill-opacity:0.298;stroke:none;"/></g></mask></g></g><g clip-rule="nonzero" clip-path="url(#clip15)"><path style=" stroke:none;fill-rule:nonzero;fill:rgb(93.328857%,25.099182%,20.779419%);fill-opacity:1;" d="M 9.96875 48.40625 L 9.96875 75.464844 L 54.546875 75.464844 Z M 9.96875 48.40625 "/></g><g clip-rule="nonzero" clip-path="url(#clip16)"><path style=" stroke:none;fill-rule:nonzero;fill:rgb(93.328857%,25.099182%,20.779419%);fill-opacity:1;" d="M 54.550781 75.464844 L 99.128906 75.464844 L 99.128906 48.40625 Z M 54.550781 75.464844 "/></g><g clip-rule="nonzero" clip-path="url(#clip17)"><path style=" stroke:none;fill-rule:nonzero;fill:rgb(93.328857%,25.099182%,20.779419%);fill-opacity:1;" d="M 99.128906 48.40625 L 54.546875 21.34375 L 9.96875 48.40625 L 54.546875 75.464844 L 54.550781 75.464844 Z M 99.128906 48.40625 "/></g><g clip-rule="nonzero" clip-path="url(#clip18)"><g mask="url(#mask4)" transform="matrix(1,0,0,1,10,48)"><g xml:id="surface17" id="surface17" clip-path="url(#clip19)"><g clip-rule="nonzero" clip-path="url(#clip20)"><path style=" stroke:none;fill-rule:nonzero;fill:rgb(100%,100%,100%);fill-opacity:1;" d="M -0.03125 0.40625 L -0.03125 27.464844 L 44.546875 27.464844 Z M -0.03125 0.40625 "/></g></g><mask xml:id="mask4" id="mask4"><g filter="url(#alpha)"><rect x="0" width="381.75" y="0" height="153.750002" style="fill:rgb(0%,0%,0%);fill-opacity:0.2;stroke:none;"/></g></mask></g></g><g clip-rule="nonzero" clip-path="url(#clip21)"><g mask="url(#mask5)" transform="matrix(1,0,0,1,54,48)"><g xml:id="surface21" id="surface21" clip-path="url(#clip22)"><g clip-rule="nonzero" clip-path="url(#clip23)"><path style=" stroke:none;fill-rule:nonzero;fill:rgb(100%,100%,100%);fill-opacity:1;" d="M 0.550781 27.464844 L 45.128906 27.464844 L 45.128906 0.40625 Z M 0.550781 27.464844 "/></g></g><mask xml:id="mask5" id="mask5"><g filter="url(#alpha)"><rect x="0" width="381.75" y="0" height="153.750002" style="fill:rgb(0%,0%,0%);fill-opacity:0.298;stroke:none;"/></g></mask></g></g><g clip-rule="nonzero" clip-path="url(#clip24)"><g mask="url(#mask6)" transform="matrix(1,0,0,1,10,21)"><g xml:id="surface24" id="surface24" clip-path="url(#clip25)"><g clip-rule="nonzero" clip-path="url(#clip26)"><path style=" stroke:none;fill-rule:nonzero;fill:rgb(100%,100%,100%);fill-opacity:1;" d="M 89.128906 27.40625 L 44.546875 0.34375 L -0.03125 27.40625 L 44.546875 54.464844 L 44.550781 54.464844 Z M 89.128906 27.40625 "/></g></g><mask xml:id="mask6" id="mask6"><g filter="url(#alpha)"><rect x="0" width="381.75" y="0" height="153.750002" style="fill:rgb(0%,0%,0%);fill-opacity:0.698;stroke:none;"/></g></mask></g></g><g style="fill:rgb(100%,100%,100%);fill-opacity:1;"><g transform="translate(124.71404, 93.486825)"><path style="stroke:none;" d="M 2.496094 -30.125 L 2.496094 0 L 6.066406 0 L 6.066406 -23.5 L 6.199219 -23.5 L 16.398438 0 L 19.324219 0 L 29.480469 -23.5 L 29.609375 -23.5 L 29.609375 0 L 33.226562 0 L 33.226562 -30.125 L 29.222656 -30.125 L 17.859375 -4.5625 L 6.457031 -30.125 Z M 2.496094 -30.125 "/></g></g><g style="fill:rgb(100%,100%,100%);fill-opacity:1;"><g transform="translate(160.381494, 93.486825)"><path style="stroke:none;" d="M 11.792969 -22.59375 C 6.886719 -22.59375 1.421875 -19.066406 1.421875 -11.191406 C 1.421875 -3.226562 6.886719 0.300781 11.792969 0.300781 C 16.699219 0.300781 22.207031 -3.226562 22.207031 -11.191406 C 22.207031 -19.066406 16.699219 -22.59375 11.792969 -22.59375 Z M 18.851562 -11.191406 C 18.851562 -5.25 15.40625 -2.582031 11.792969 -2.582031 C 8.175781 -2.582031 4.734375 -5.25 4.734375 -11.191406 C 4.734375 -17.085938 8.175781 -19.710938 11.792969 -19.710938 C 15.40625 -19.710938 18.851562 -17.085938 18.851562 -11.191406 Z M 18.851562 -11.191406 "/></g></g><g style="fill:rgb(100%,100%,100%);fill-opacity:1;"><g transform="translate(183.959014, 93.486825)"><path style="stroke:none;" d="M 13.902344 -22.59375 C 9.082031 -22.59375 6.414062 -18.808594 5.9375 -17.171875 L 5.9375 -22.378906 L 2.496094 -22.378906 L 2.496094 0 L 5.9375 0 L 5.9375 -13.859375 C 6.371094 -15.96875 8.519531 -19.667969 12.78125 -19.667969 C 16.183594 -19.667969 18.421875 -18.117188 18.421875 -13.425781 L 18.421875 0 L 21.863281 0 L 21.863281 -13.558594 C 21.863281 -20.355469 18.378906 -22.59375 13.902344 -22.59375 Z M 13.902344 -22.59375 "/></g></g><g style="fill:rgb(100%,100%,100%);fill-opacity:1;"><g transform="translate(208.26796, 93.486825)"><path style="stroke:none;" d="M 2.496094 -30.511719 L 2.496094 -27.328125 L 5.9375 -27.328125 L 5.9375 -30.511719 Z M 2.496094 -22.378906 L 2.496094 0 L 5.9375 0 L 5.9375 -22.378906 Z M 2.496094 -22.378906 "/></g></g><g style="fill:rgb(100%,100%,100%);fill-opacity:1;"><g transform="translate(216.657777, 93.486825)"><path style="stroke:none;" d="M 9.898438 -2.539062 C 8.21875 -2.539062 7.660156 -3.226562 7.660156 -4.433594 L 7.660156 -19.625 L 12.007812 -19.625 L 12.007812 -22.378906 L 7.660156 -22.378906 L 7.660156 -27.972656 L 4.21875 -27.972656 L 4.21875 -22.378906 L 0.773438 -22.378906 L 0.773438 -19.625 L 4.21875 -19.625 L 4.21875 -4.089844 C 4.21875 -0.601562 6.285156 0.257812 8.867188 0.257812 C 10.15625 0.257812 11.40625 0.0859375 12.351562 -0.257812 L 12.351562 -2.882812 C 11.40625 -2.625 10.671875 -2.539062 9.898438 -2.539062 Z M 9.898438 -2.539062 "/></g></g><g style="fill:rgb(100%,100%,100%);fill-opacity:1;"><g transform="translate(230.382643, 93.486825)"><path style="stroke:none;" d="M 11.792969 -22.59375 C 6.886719 -22.59375 1.421875 -19.066406 1.421875 -11.191406 C 1.421875 -3.226562 6.886719 0.300781 11.792969 0.300781 C 16.699219 0.300781 22.207031 -3.226562 22.207031 -11.191406 C 22.207031 -19.066406 16.699219 -22.59375 11.792969 -22.59375 Z M 18.851562 -11.191406 C 18.851562 -5.25 15.40625 -2.582031 11.792969 -2.582031 C 8.175781 -2.582031 4.734375 -5.25 4.734375 -11.191406 C 4.734375 -17.085938 8.175781 -19.710938 11.792969 -19.710938 C 15.40625 -19.710938 18.851562 -17.085938 18.851562 -11.191406 Z M 18.851562 -11.191406 "/></g></g><g style="fill:rgb(100%,100%,100%);fill-opacity:1;"><g transform="translate(253.960163, 93.486825)"><path style="stroke:none;" d="M 13.601562 -22.59375 C 9.296875 -22.59375 6.671875 -19.96875 5.9375 -16.957031 L 5.9375 -22.378906 L 2.496094 -22.378906 L 2.496094 0 L 5.9375 0 L 5.9375 -13.082031 C 6.671875 -17 9.296875 -19.496094 13.859375 -19.496094 C 14.160156 -19.496094 14.546875 -19.496094 15.191406 -19.453125 L 15.191406 -22.507812 C 14.546875 -22.59375 14.074219 -22.59375 13.601562 -22.59375 Z M 13.601562 -22.59375 "/></g></g><g style="fill:rgb(100%,100%,100%);fill-opacity:1;"><g transform="translate(270.309545, 93.486825)"><path style="stroke:none;" d="M 20.398438 -3.875 L 20.398438 -14.074219 C 20.398438 -20.269531 17.515625 -22.59375 11.578125 -22.59375 C 6.414062 -22.59375 3.269531 -20.613281 2.796875 -16.613281 L 6.066406 -16.613281 C 6.457031 -18.765625 8.132812 -19.96875 11.535156 -19.96875 C 15.0625 -19.96875 16.957031 -18.765625 16.957031 -14.890625 L 16.957031 -14.589844 C 15.40625 -13.773438 11.964844 -13.339844 9.296875 -12.953125 C 4.089844 -12.136719 1.421875 -10.328125 1.421875 -6.371094 C 1.421875 -1.9375 4.5625 0.300781 8.738281 0.300781 C 14.203125 0.300781 16.65625 -3.398438 17.257812 -4.605469 L 17.257812 -3.011719 C 17.257812 -0.6875 18.507812 0.171875 20.613281 0.171875 C 21.21875 0.171875 21.5625 0.128906 22.035156 -0.0859375 L 22.035156 -2.195312 C 20.832031 -2.152344 20.398438 -2.667969 20.398438 -3.875 Z M 16.957031 -7.144531 C 16.398438 -5.980469 14.117188 -2.28125 9.511719 -2.28125 C 6.542969 -2.28125 4.863281 -3.960938 4.863281 -6.457031 C 4.863281 -8.824219 6.066406 -10.113281 9.726562 -10.714844 C 12.695312 -11.234375 15.664062 -11.707031 16.957031 -12.394531 Z M 16.957031 -7.144531 "/></g></g><g style="fill:rgb(100%,100%,100%);fill-opacity:1;"><g transform="translate(293.32775, 93.486825)"><path style="stroke:none;" d="M 9.898438 -2.539062 C 8.21875 -2.539062 7.660156 -3.226562 7.660156 -4.433594 L 7.660156 -19.625 L 12.007812 -19.625 L 12.007812 -22.378906 L 7.660156 -22.378906 L 7.660156 -27.972656 L 4.21875 -27.972656 L 4.21875 -22.378906 L 0.773438 -22.378906 L 0.773438 -19.625 L 4.21875 -19.625 L 4.21875 -4.089844 C 4.21875 -0.601562 6.285156 0.257812 8.867188 0.257812 C 10.15625 0.257812 11.40625 0.0859375 12.351562 -0.257812 L 12.351562 -2.882812 C 11.40625 -2.625 10.671875 -2.539062 9.898438 -2.539062 Z M 9.898438 -2.539062 "/></g></g><g style="fill:rgb(100%,100%,100%);fill-opacity:1;"><g transform="translate(307.052616, 93.486825)"><path style="stroke:none;" d="M 11.792969 -22.59375 C 6.886719 -22.59375 1.421875 -19.066406 1.421875 -11.191406 C 1.421875 -3.226562 6.886719 0.300781 11.792969 0.300781 C 16.699219 0.300781 22.207031 -3.226562 22.207031 -11.191406 C 22.207031 -19.066406 16.699219 -22.59375 11.792969 -22.59375 Z M 18.851562 -11.191406 C 18.851562 -5.25 15.40625 -2.582031 11.792969 -2.582031 C 8.175781 -2.582031 4.734375 -5.25 4.734375 -11.191406 C 4.734375 -17.085938 8.175781 -19.710938 11.792969 -19.710938 C 15.40625 -19.710938 18.851562 -17.085938 18.851562 -11.191406 Z M 18.851562 -11.191406 "/></g></g><g style="fill:rgb(100%,100%,100%);fill-opacity:1;"><g transform="translate(330.630136, 93.486825)"><path style="stroke:none;" d="M 13.601562 -22.59375 C 9.296875 -22.59375 6.671875 -19.96875 5.9375 -16.957031 L 5.9375 -22.378906 L 2.496094 -22.378906 L 2.496094 0 L 5.9375 0 L 5.9375 -13.082031 C 6.671875 -17 9.296875 -19.496094 13.859375 -19.496094 C 14.160156 -19.496094 14.546875 -19.496094 15.191406 -19.453125 L 15.191406 -22.507812 C 14.546875 -22.59375 14.074219 -22.59375 13.601562 -22.59375 Z M 13.601562 -22.59375 "/></g></g></g></svg>